<svg xmlns="http://www.w3.org/2000/svg" viewBox="0 0 409 398"><path fill="#203A71" fill-rule="evenodd" d="M240.7,393.0C238.0,392.5 235.0,391.4 234.1,390.6C233.1,389.7 231.5,389.0 230.4,389.0C225.9,389.0 224.5,386.6 224.8,379.6C225.0,373.9 224.6,372.2 222.0,366.9C219.5,362.1 218.9,359.8 219.1,355.7C219.2,352.8 218.6,348.1 217.7,345.1C216.8,342.1 216.0,336.4 216.0,332.5C216.0,328.6 215.6,320.7 215.0,314.9C214.5,309.2 213.3,296.4 212.4,286.5C211.5,275.8 210.1,266.3 209.0,263.0C208.0,260.0 206.2,254.2 205.0,250.2L202.9,242.9L199.7,243.6C195.2,244.5 195.0,244.7 195.0,248.9C195.0,251.0 194.6,254.0 194.0,255.6C193.5,257.2 192.1,274.0 191.1,292.8C189.8,314.5 188.7,327.7 187.9,328.6C187.3,329.3 186.4,333.4 185.9,337.5C185.5,341.6 184.7,345.6 184.3,346.3C183.9,346.9 183.5,350.9 183.5,355.0C183.5,360.2 182.9,363.5 181.7,365.8C180.2,368.5 180.0,370.4 180.6,375.9C180.9,379.8 180.8,383.5 180.3,384.5C179.7,385.4 176.0,387.6 171.9,389.3C166.0,391.7 163.0,392.4 157.2,392.4C151.0,392.5 149.6,392.2 148.4,390.5C146.1,387.5 147.3,382.5 151.5,377.5C156.3,371.5 157.0,369.3 155.4,364.6C153.8,360.1 153.6,349.3 155.0,345.6C155.6,343.9 155.5,341.6 154.5,338.3C150.9,325.8 150.7,288.4 154.0,251.7C155.3,238.1 156.0,226.7 155.8,226.4C154.2,224.9 150.4,227.4 148.9,230.8C147.6,233.8 146.5,234.8 143.3,235.8C137.9,237.4 133.0,237.3 131.6,235.6C130.7,234.4 127.9,235.1 113.5,240.0C104.2,243.2 83.3,250.3 67.3,255.8L38.0,265.9L37.4,263.3C37.0,261.9 37.2,260.5 37.8,260.1C38.4,259.7 46.8,256.7 56.5,253.5C66.1,250.2 74.0,247.1 74.0,246.6C74.0,246.1 70.4,235.9 65.9,224.0L57.8,202.2L40.9,208.1C31.5,211.3 23.3,214.0 22.5,214.0C21.1,214.0 19.4,210.3 20.3,209.4C20.6,209.1 45.9,200.2 76.7,189.7L132.5,170.5L132.6,164.0C132.7,160.4 132.3,157.0 131.8,156.3C131.2,155.6 131.3,154.4 131.9,153.1C132.5,152.0 133.0,149.4 133.0,147.4C133.0,145.3 133.7,142.9 134.6,141.9C135.5,140.9 136.5,137.5 136.9,134.3C137.3,131.1 138.4,127.0 139.4,125.1C140.6,122.9 141.0,120.7 140.6,118.7C139.8,114.8 144.1,99.6 148.3,90.9C152.4,82.7 157.1,79.1 169.2,75.1C180.5,71.3 184.7,68.9 185.2,65.9C185.4,64.4 186.4,63.4 188.0,63.0C190.1,62.5 190.5,61.8 190.4,58.9C190.2,52.5 189.0,48.1 187.1,47.5C183.9,46.5 180.5,37.0 182.9,35.6C183.4,35.3 183.9,31.3 184.2,26.6C184.5,21.1 185.2,17.3 186.3,15.7C188.1,12.9 199.7,7.0 203.4,7.0C207.5,7.0 215.2,10.9 218.9,14.8C220.9,16.8 224.0,19.3 225.8,20.2C230.7,22.8 230.2,26.3 224.6,29.8L220.2,32.5L219.8,42.0C219.4,50.6 218.6,53.6 215.2,60.2C215.0,60.7 216.2,61.0 217.9,61.0C220.2,61.0 221.0,61.5 221.0,62.8C221.0,65.6 229.2,71.7 236.7,74.5C244.6,77.5 253.2,83.0 254.8,86.3C257.0,90.5 259.7,98.5 260.4,102.5C260.8,104.7 261.8,108.6 262.6,111.3C263.5,113.9 264.5,118.0 264.8,120.4L265.5,124.8L313.4,108.4C349.9,95.9 361.5,92.3 362.2,93.2C364.2,96.4 362.9,97.5 353.2,100.8C347.9,102.7 342.3,104.7 340.9,105.3L338.2,106.5L345.9,127.0C350.1,138.3 353.9,148.3 354.2,149.2C354.8,150.7 356.1,150.5 366.6,147.0C373.1,144.8 378.5,143.1 378.6,143.3C378.7,143.4 379.1,144.6 379.5,146.0C380.1,148.5 379.8,148.6 322.8,168.1L265.5,187.8L265.0,206.5L264.5,225.2L261.7,227.4C259.4,229.3 259.0,230.2 259.6,232.4C260.4,235.6 261.2,235.5 272.3,229.8C276.6,227.5 280.3,225.9 280.5,226.2C280.8,226.4 284.5,238.7 288.9,253.5C295.0,274.1 296.6,280.8 295.9,282.3C292.9,287.8 277.1,294.0 265.8,294.0L258.9,294.0L254.2,284.2L249.5,274.5L248.8,307.5C248.4,325.6 248.0,341.5 247.9,342.7C247.9,344.0 249.0,346.4 250.4,348.1C253.5,351.8 253.7,354.8 250.9,362.6C248.4,369.8 248.9,372.9 253.4,378.2C259.5,385.3 259.4,391.2 253.2,393.0C249.0,394.1 247.6,394.1 240.7,393.0ZM95.0,240.1C102.8,237.5 106.4,235.8 106.2,234.9C106.0,233.7 90.9,191.9 90.5,191.2C90.1,190.6 64.0,200.4 64.0,201.2C64.0,201.9 70.5,219.7 79.1,242.8C79.7,244.4 80.5,245.0 81.8,244.6C82.7,244.3 88.7,242.3 95.0,240.1ZM254.2,234.9C253.9,232.5 252.3,230.0 250.9,230.0C250.4,230.0 250.0,232.0 250.0,234.5C250.0,238.7 250.1,238.9 252.2,238.1C253.8,237.5 254.4,236.5 254.2,234.9ZM121.5,231.1L129.5,228.3L132.7,221.9C134.4,218.4 135.9,214.1 135.9,212.3C136.0,209.8 130.5,193.2 125.5,180.8C124.9,179.4 123.2,179.7 110.7,184.1C102.9,186.9 96.4,189.2 96.3,189.4C95.9,189.8 112.4,234.0 113.0,234.0C113.3,234.0 117.1,232.7 121.5,231.1ZM155.3,219.0C156.8,217.7 158.9,199.6 159.5,183.3L160.1,167.1L157.1,168.1C154.4,169.1 154.1,169.6 153.5,175.3C153.1,178.7 151.3,187.5 149.4,194.9C145.3,210.8 145.1,216.1 148.2,219.0C150.3,220.9 153.2,220.9 155.3,219.0ZM249.0,214.2C249.0,212.7 250.1,209.9 251.5,208.0C253.5,205.2 254.0,203.5 254.0,198.3C254.0,194.8 253.9,192.0 253.7,192.0C253.5,192.0 251.3,192.7 248.7,193.6C244.4,195.1 244.2,195.3 245.1,197.6C245.6,199.0 246.0,202.5 246.0,205.4C246.0,211.9 246.9,217.0 248.1,217.0C248.6,217.0 249.0,215.7 249.0,214.2ZM248.5,187.4C251.8,186.1 252.1,185.6 251.6,183.2C251.3,181.7 250.5,177.6 249.9,174.0C249.3,170.4 248.1,166.6 247.4,165.5C246.6,164.4 246.0,162.4 246.0,161.0C246.0,159.6 245.2,155.6 244.2,152.0L242.3,145.5L241.7,159.0C241.3,166.4 241.5,175.7 242.0,179.5C242.5,183.3 242.9,187.1 243.0,187.8C243.0,189.4 244.0,189.3 248.5,187.4ZM132.6,177.2C131.4,176.1 130.9,177.9 131.7,180.6L132.5,183.5L132.8,180.7C133.0,179.1 132.9,177.6 132.6,177.2ZM285.5,174.8C295.4,171.5 303.9,168.3 304.4,167.9C305.1,167.2 291.4,127.8 289.1,124.2C288.6,123.3 285.5,124.0 277.8,126.7C272.0,128.8 267.2,130.8 267.1,131.3C266.9,131.7 267.6,136.2 268.5,141.3C270.1,150.1 270.1,150.9 268.5,154.6C266.6,158.8 265.1,181.0 266.6,181.0C267.1,181.0 275.6,178.2 285.5,174.8ZM330.5,159.5C339.9,156.3 347.9,153.4 348.3,153.0C348.9,152.5 333.9,109.5 332.6,108.3C332.2,107.8 296.7,120.2 295.6,121.1C294.8,121.8 298.7,133.2 308.2,158.3C310.0,162.9 311.7,165.9 312.4,165.6C313.0,165.4 321.1,162.6 330.5,159.5ZM157.4,162.0C159.9,161.1 160.0,160.7 159.9,153.3L159.8,145.5L158.8,150.5C158.3,153.2 157.3,156.2 156.7,157.0C154.4,159.9 153.0,163.0 153.9,163.0C154.4,163.0 156.0,162.6 157.4,162.0Z"/></svg>